<?xml version="1.0" encoding="UTF-8" standalone="no"?>
<!-- Generator: Adobe Illustrator 26.5.0, SVG Export Plug-In . SVG Version: 6.00 Build 0)  -->

<svg
   version="1.1"
   id="Layer_1"
   x="0px"
   y="0px"
   viewBox="0 0 103.5 117"
   xml:space="preserve"
   sodipodi:docname="JVP-logo.svg"
   width="103.5"
   height="117"
   inkscape:version="1.1.2 (0a00cf5339, 2022-02-04)"
   xmlns:inkscape="http://www.inkscape.org/namespaces/inkscape"
   xmlns:sodipodi="http://sodipodi.sourceforge.net/DTD/sodipodi-0.dtd"
   xmlns="http://www.w3.org/2000/svg"
   xmlns:svg="http://www.w3.org/2000/svg"><defs
   id="defs98">
			
			
			
			
		</defs><sodipodi:namedview
   id="namedview96"
   pagecolor="#ffffff"
   bordercolor="#666666"
   borderopacity="1.0"
   inkscape:pageshadow="2"
   inkscape:pageopacity="0.0"
   inkscape:pagecheckerboard="0"
   showgrid="false"
   fit-margin-top="0"
   fit-margin-left="0"
   fit-margin-right="0"
   fit-margin-bottom="0"
   inkscape:zoom="5.0048387"
   inkscape:cx="69.332904"
   inkscape:cy="63.338705"
   inkscape:window-width="1920"
   inkscape:window-height="995"
   inkscape:window-x="0"
   inkscape:window-y="0"
   inkscape:window-maximized="1"
   inkscape:current-layer="g92" />
<style
   type="text/css"
   id="style2">
	.st0{fill:#AB9DF5;}
	.st1{opacity:0.75;}
	.st2{fill:#6E55FF;}
	.st3{fill:#C5BBFF;}
	.st4{fill:#272529;}
	.st5{fill:#333333;}
	.st6{fill:#666666;}
	.st7{fill:#E2DDFF;}
	.st8{fill:#FA8F8F;}
	.st9{fill:#FFFFFF;}
	.st10{fill:#1D1C1F;}
	.st11{fill:none;stroke:#6E55FF;stroke-width:2;stroke-miterlimit:10;}
	.st12{fill:url(#SVGID_00000150798008316408901090000009001716187835972524_);}
	.st13{fill:#6E55FF;stroke:#FFFFFF;stroke-width:5;stroke-linecap:round;stroke-linejoin:round;stroke-miterlimit:10;}
	.st14{fill:none;stroke:#FFFFFF;stroke-width:5;stroke-miterlimit:10;}
	.st15{fill:url(#SVGID_00000058555863695320092190000011636492536652150964_);}
	.st16{fill:none;stroke:#C5BBFF;stroke-width:5;stroke-miterlimit:10;}
	.st17{fill:#5340BF;}
	.st18{fill:#FF5547;}
	.st19{fill:#B45A20;}
	.st20{opacity:0.75;fill:url(#SVGID_00000054227270606443185010000009764205845311611313_);}
	.st21{fill:none;stroke:#AB9DF5;stroke-width:0.5;stroke-miterlimit:10;}
	.st22{opacity:0.75;fill:url(#SVGID_00000016762642500430471930000002573450410614347155_);}
	.st23{fill:none;stroke:#FF5547;stroke-width:0.5;stroke-miterlimit:10;}
	.st24{opacity:0.25;}
</style>
<g
   id="Layer_1_00000087377497771072247120000009014140344923173561_">
	<g
   id="g92">
		<g
   id="g42">
			<g
   id="g8">
				<path
   class="st2"
   d="M 65.7,20.4 53.9,0 V 50.4 L 65.7,30 c 1.7,-3 1.7,-6.6 0,-9.6 z"
   id="path4" />
				<path
   class="st2"
   d="M 37.8,20.4 49.6,0 V 50.4 L 37.8,29.9 c -1.7,-2.9 -1.7,-6.5 0,-9.5 z"
   id="path6" />
			</g>
			<g
   id="g14">
				<path
   class="st2"
   d="M 91.7,51.6 103.5,31.2 59.9,56.3 h 23.6 c 3.4,0 6.5,-1.8 8.2,-4.7 z"
   id="path10" />
				<path
   class="st2"
   d="m 77.7,27.4 h 23.6 L 57.7,52.6 69.5,32.2 c 1.7,-3 4.8,-4.8 8.2,-4.8 z"
   id="path12" />
			</g>
			<g
   id="g20">
				<path
   class="st2"
   d="M 11.8,51.6 0,31.2 43.6,56.4 H 20 c -3.4,-0.1 -6.5,-1.9 -8.2,-4.8 z"
   id="path16" />
				<path
   class="st2"
   d="M 25.8,27.4 H 2.2 L 45.8,52.6 34,32.1 c -1.7,-2.9 -4.8,-4.7 -8.2,-4.7 z"
   id="path18" />
			</g>
			<g
   id="g40">
				<g
   id="g26">
					<path
   class="st2"
   d="M 65.7,96.6 53.9,117 V 66.6 L 65.7,87 c 1.7,3 1.7,6.6 0,9.6 z"
   id="path22" />
					<path
   class="st2"
   d="M 37.8,96.6 49.6,117 V 66.6 L 37.8,87.1 c -1.7,2.9 -1.7,6.5 0,9.5 z"
   id="path24" />
				</g>
				<g
   id="g32">
					<path
   class="st2"
   d="M 91.7,65.4 103.5,85.8 59.9,60.7 h 23.6 c 3.4,0 6.5,1.8 8.2,4.7 z"
   id="path28" />
					<path
   class="st2"
   d="m 77.7,89.6 h 23.6 L 57.7,64.5 69.5,84.9 c 1.7,2.9 4.8,4.7 8.2,4.7 z"
   id="path30" />
				</g>
				<g
   id="g38">
					<path
   class="st2"
   d="M 11.8,65.4 0,85.9 43.6,60.7 H 20 c -3.4,0 -6.5,1.8 -8.2,4.7 z"
   id="path34" />
					<path
   class="st2"
   d="M 25.8,89.6 H 2.2 L 45.8,64.4 34,84.9 c -1.7,2.9 -4.8,4.7 -8.2,4.7 z"
   id="path36" />
				</g>
			</g>
		</g>
		
	</g>
</g>
</svg>
